<svg width="30" height="30" viewBox="0 0 30 30" fill="none" xmlns="http://www.w3.org/2000/svg">
<rect x="1" y="1" width="28" height="28" rx="14" fill="#6499FF"/>
<rect x="1" y="1" width="28" height="28" rx="14" stroke="#386EE2" stroke-width="2"/>
<path d="M15.5625 8.0625C15.5625 7.75184 15.3107 7.5 15 7.5C14.6893 7.5 14.4375 7.75184 14.4375 8.0625V8.83456C14.4375 9.14522 14.6893 9.39706 15 9.39706C15.3107 9.39706 15.5625 9.14522 15.5625 8.83456V8.0625Z" fill="white"/>
<path d="M10.493 9.70025C10.2735 9.4804 9.91738 9.48012 9.69754 9.69961C9.47769 9.91911 9.47741 10.2753 9.69691 10.4951L10.242 11.041C10.4615 11.2609 10.8176 11.2612 11.0375 11.0417C11.2573 10.8222 11.2576 10.466 11.0381 10.2462L10.493 9.70025Z" fill="white"/>
<path d="M20.3032 10.4951C20.5226 10.2753 20.5224 9.91911 20.3025 9.69962C20.0827 9.48012 19.7265 9.4804 19.507 9.70025L18.962 10.2462C18.7425 10.466 18.7428 10.8222 18.9626 11.0417C19.1824 11.2612 19.5386 11.2609 19.7581 11.041L20.3032 10.4951Z" fill="white"/>
<path d="M8.0625 14.625C7.75184 14.625 7.5 14.8768 7.5 15.1875C7.5 15.4982 7.75184 15.75 8.0625 15.75H8.83333C9.14399 15.75 9.39583 15.4982 9.39583 15.1875C9.39583 14.8768 9.14399 14.625 8.83333 14.625H8.0625Z" fill="white"/>
<path d="M21.1667 14.625C20.856 14.625 20.6042 14.8768 20.6042 15.1875C20.6042 15.4982 20.856 15.75 21.1667 15.75H21.9375C22.2482 15.75 22.5 15.4982 22.5 15.1875C22.5 14.8768 22.2482 14.625 21.9375 14.625H21.1667Z" fill="white"/>
<path d="M8.0625 17.625C7.75184 17.625 7.5 17.8768 7.5 18.1875C7.5 18.4982 7.75184 18.75 8.0625 18.75H21.9375C22.2482 18.75 22.5 18.4982 22.5 18.1875C22.5 17.8768 22.2482 17.625 21.9375 17.625H8.0625Z" fill="white"/>
<path d="M11.0625 20.625C10.7518 20.625 10.5 20.8768 10.5 21.1875C10.5 21.4982 10.7518 21.75 11.0625 21.75H18.9375C19.2482 21.75 19.5 21.4982 19.5 21.1875C19.5 20.8768 19.2482 20.625 18.9375 20.625H11.0625Z" fill="white"/>
<path d="M18.1875 15.75C18.4982 15.75 18.75 15.4982 18.75 15.1875V15.0051C18.75 12.932 17.0719 11.25 15 11.25C12.9281 11.25 11.25 12.932 11.25 15.0051V15.1875C11.25 15.4982 11.5018 15.75 11.8125 15.75C13.073 15.75 16.927 15.75 18.1875 15.75Z" fill="white"/>
</svg>
