<svg width="19" height="20" viewBox="0 0 19 20" fill="none" xmlns="http://www.w3.org/2000/svg">
<g clip-path="url(#clip0_4173_30093)">
<path d="M15.9085 11.8216V7.19943C15.9085 6.48897 15.6869 5.81028 15.2676 5.23671L12.4056 1.32145L12.3929 1.30468C11.7181 0.440625 10.4661 0.28651 9.60198 0.961232C9.56721 0.988359 9.53403 1.01682 9.5016 1.04573C9.46902 1.01675 9.43584 0.988322 9.40122 0.961306C8.9837 0.635301 8.46283 0.49165 7.93473 0.556555C7.40659 0.621607 6.93615 0.887236 6.61022 1.30475L3.73547 5.23675C3.31624 5.81031 3.09459 6.48904 3.09459 7.1995V11.8217L0.3125 14.6037L5.16796 19.4592L7.97993 16.6472L7.97458 16.6419L9.01261 15.7521C9.19567 15.5952 9.35921 15.4205 9.50152 15.2315C9.64384 15.4204 9.80738 15.5952 9.99044 15.7521L11.0284 16.6419L11.0231 16.6472L13.8351 19.4592L18.6906 14.6037L15.9085 11.8216ZM5.16793 17.5845L2.18715 14.6037L3.12446 13.6663L6.10524 16.6472L5.16793 17.5845ZM8.83879 13.248C8.83879 13.8246 8.58771 14.3704 8.14996 14.7457L7.03449 15.7017L4.42017 13.0873V7.19943C4.42017 6.77211 4.55347 6.36395 4.80559 6.01902L7.66042 2.11366C7.76822 1.97922 7.92285 1.89357 8.09667 1.87216C8.27331 1.85037 8.44695 1.89791 8.58537 2.00601C8.72375 2.11403 8.81196 2.2709 8.8337 2.44761C8.85549 2.62436 8.80795 2.79792 8.69985 2.9363L6.18762 6.40395V11.4554H7.5132V8.27404C7.5132 7.90859 7.81052 7.61127 8.17598 7.61127C8.54143 7.61127 8.83875 7.90859 8.83875 8.27404L8.83879 13.248ZM9.50156 6.7936C9.1495 6.47802 8.68486 6.28568 8.17598 6.28568C8.08072 6.28568 7.98716 6.29285 7.89543 6.30587L9.50156 4.08844L11.1077 6.30584C11.016 6.29285 10.9224 6.28568 10.8271 6.28568C10.3183 6.28568 9.85362 6.4781 9.50156 6.7936ZM10.8532 14.7457C10.4154 14.3704 10.1643 13.8246 10.1643 13.2481V8.274C10.1643 7.90855 10.4617 7.61123 10.8271 7.61123C11.1926 7.61123 11.4899 7.90855 11.4899 8.274V11.4554H12.8155V6.40395L10.3176 2.95542L10.3033 2.93627C10.0783 2.64819 10.1297 2.23089 10.4178 2.00597C10.7035 1.7828 11.1164 1.83167 11.3427 2.11366L14.1975 6.01902C14.4497 6.36399 14.583 6.77211 14.583 7.19943V13.0874L11.9686 15.7017L10.8532 14.7457ZM12.8978 16.6471L15.8786 13.6663L16.816 14.6036L13.8351 17.5845L12.8978 16.6471Z" fill="#2B2B2B"/>
<path d="M2.20931 4.81299H0V6.13857H2.20931V4.81299Z" fill="#2B2B2B"/>
<path d="M0.80118 1.46301L0.359375 2.71274L2.44227 3.44909L2.88408 2.19936L0.80118 1.46301Z" fill="#2B2B2B"/>
<path d="M18.9984 4.81299H16.7891V6.13857H18.9984V4.81299Z" fill="#2B2B2B"/>
<path d="M18.1961 1.46319L16.1133 2.19952L16.5551 3.44921L18.6379 2.71288L18.1961 1.46319Z" fill="#2B2B2B"/>
</g>
<defs>
<clipPath id="clip0_4173_30093">
<rect width="19" height="19" fill="white" transform="translate(0 0.5)"/>
</clipPath>
</defs>
</svg>
