<svg width="46" height="46" viewBox="0 0 46 46" fill="none" xmlns="http://www.w3.org/2000/svg">
<rect width="46" height="46" rx="23" fill="#386EE2" fill-opacity="0.05"/>
<rect x="0.5" y="0.5" width="45" height="45" rx="22.5" stroke="#386EE2" stroke-opacity="0.05"/>
<path d="M16.75 32.25L16.0016 32.2983C16.027 32.6929 16.3545 33 16.75 33V32.25ZM29.25 32.25V33C29.6455 33 29.973 32.6929 29.9984 32.2983L29.25 32.25ZM13.75 16C13.3358 16 13 16.3358 13 16.75C13 17.1642 13.3358 17.5 13.75 17.5V16ZM32.25 17.5C32.6642 17.5 33 17.1642 33 16.75C33 16.3358 32.6642 16 32.25 16V17.5ZM21.5 21.75C21.5 21.3358 21.1642 21 20.75 21C20.3358 21 20 21.3358 20 21.75H21.5ZM20 27.25C20 27.6642 20.3358 28 20.75 28C21.1642 28 21.5 27.6642 21.5 27.25H20ZM26 21.75C26 21.3358 25.6642 21 25.25 21C24.8358 21 24.5 21.3358 24.5 21.75H26ZM24.5 27.25C24.5 27.6642 24.8358 28 25.25 28C25.6642 28 26 27.6642 26 27.25H24.5ZM26.1477 16.9369C26.2509 17.3381 26.6598 17.5796 27.0609 17.4763C27.4621 17.3731 27.7036 16.9642 27.6003 16.5631L26.1477 16.9369ZM15.0016 16.7983L16.0016 32.2983L17.4984 32.2017L16.4984 16.7017L15.0016 16.7983ZM16.75 33H29.25V31.5H16.75V33ZM29.9984 32.2983L30.9984 16.7983L29.5016 16.7017L28.5016 32.2017L29.9984 32.2983ZM30.25 16H15.75V17.5H30.25V16ZM13.75 17.5H15.75V16H13.75V17.5ZM30.25 17.5H32.25V16H30.25V17.5ZM20 21.75V27.25H21.5V21.75H20ZM24.5 21.75V27.25H26V21.75H24.5ZM23 14.5C24.5134 14.5 25.7868 15.535 26.1477 16.9369L27.6003 16.5631C27.0731 14.5145 25.2144 13 23 13V14.5ZM19.8524 16.9369C20.2132 15.535 21.4867 14.5 23 14.5V13C20.7857 13 18.927 14.5145 18.3997 16.5631L19.8524 16.9369Z" fill="#386EE2"/>
</svg>
