<svg width="21" height="20" viewBox="0 0 21 20" fill="none" xmlns="http://www.w3.org/2000/svg">
<path fill-rule="evenodd" clip-rule="evenodd" d="M5.72428 1.66669C4.45863 1.66669 3.43262 2.6927 3.43262 3.95835V16.0417C3.43262 17.3073 4.45863 18.3334 5.72428 18.3334H14.4743C15.7399 18.3334 16.766 17.3073 16.766 16.0417V3.95835C16.766 2.6927 15.7399 1.66669 14.4743 1.66669H5.72428ZM4.68262 15.8334V16.0417C4.68262 16.617 5.14899 17.0834 5.72428 17.0834H14.4743C15.0496 17.0834 15.516 16.617 15.516 16.0417V14.3335C15.2034 14.4932 14.8494 14.5834 14.4743 14.5834H5.93262C5.24226 14.5834 4.68262 15.143 4.68262 15.8334ZM7.39095 5.20835C7.04577 5.20835 6.76595 5.48818 6.76595 5.83335C6.76595 6.17853 7.04577 6.45835 7.39095 6.45835H12.8076C13.1528 6.45835 13.4326 6.17853 13.4326 5.83335C13.4326 5.48818 13.1528 5.20835 12.8076 5.20835H7.39095ZM6.76595 9.16669C6.76595 8.82151 7.04577 8.54169 7.39095 8.54169H10.3076C10.6528 8.54169 10.9326 8.82151 10.9326 9.16669C10.9326 9.51187 10.6528 9.79169 10.3076 9.79169H7.39095C7.04577 9.79169 6.76595 9.51187 6.76595 9.16669Z" fill="#386EE2"/>
</svg>
