<svg width="30" height="30" viewBox="0 0 30 30" fill="none" xmlns="http://www.w3.org/2000/svg">
<rect x="1" y="1" width="28" height="28" rx="14" fill="white"/>
<rect x="1" y="1" width="28" height="28" rx="14" stroke="#386EE2" stroke-width="2"/>
<path d="M21.9361 14.8584C21.1417 15.42 20.1719 15.75 19.125 15.75C16.4326 15.75 14.25 13.5674 14.25 10.875C14.25 9.82812 14.58 8.85831 15.1416 8.06392C15.0945 8.06297 15.0473 8.0625 15 8.0625C11.1685 8.0625 8.0625 11.1685 8.0625 15C8.0625 18.8315 11.1685 21.9375 15 21.9375C18.8315 21.9375 21.9375 18.8315 21.9375 15C21.9375 14.9527 21.937 14.9055 21.9361 14.8584Z" stroke="#386EE2" stroke-width="1.5" stroke-linecap="round" stroke-linejoin="round"/>
</svg>
