<svg width="30" height="30" viewBox="0 0 30 30" fill="none" xmlns="http://www.w3.org/2000/svg">
<rect x="1" y="1" width="28" height="28" rx="14" fill="#6499FF"/>
<rect x="1" y="1" width="28" height="28" rx="14" stroke="#386EE2" stroke-width="2"/>
<g clip-path="url(#clip0_4889_4108)">
<path d="M15.5631 7.32568C15.5631 7.01502 15.3113 6.76318 15.0006 6.76318C14.6899 6.76318 14.4381 7.01502 14.4381 7.32568V8.46813C14.4381 8.77879 14.6899 9.03063 15.0006 9.03063C15.3113 9.03063 15.5631 8.77879 15.5631 8.46813V7.32568Z" fill="white"/>
<path d="M9.17627 20.029C8.9566 20.2487 8.9566 20.6049 9.17627 20.8245C9.39594 21.0442 9.75209 21.0442 9.97176 20.8245L10.7796 20.0167C10.9993 19.797 10.9993 19.4409 10.7796 19.2212C10.5599 19.0015 10.2038 19.0015 9.98409 19.2212L9.17627 20.029Z" fill="white"/>
<path d="M15.0006 20.9696C15.3113 20.9696 15.5631 21.2214 15.5631 21.5321V22.6745C15.5631 22.9852 15.3113 23.237 15.0006 23.237C14.6899 23.237 14.4381 22.9852 14.4381 22.6745V21.5321C14.4381 21.2214 14.6899 20.9696 15.0006 20.9696Z" fill="white"/>
<path d="M19.2214 9.98359C19.0017 10.2033 19.0017 10.5594 19.2214 10.7791C19.4411 10.9988 19.7972 10.9988 20.0169 10.7791L20.8247 9.97126C21.0444 9.75159 21.0444 9.39543 20.8247 9.17576C20.605 8.95609 20.2489 8.95609 20.0292 9.17576L19.2214 9.98359Z" fill="white"/>
<path d="M20.9697 15.0001C20.9697 14.6894 21.2216 14.4376 21.5322 14.4376H22.6747C22.9853 14.4376 23.2372 14.6894 23.2372 15.0001C23.2372 15.3108 22.9853 15.5626 22.6747 15.5626H21.5322C21.2216 15.5626 20.9697 15.3108 20.9697 15.0001Z" fill="white"/>
<path d="M20.0169 19.2212C19.7972 19.0015 19.4411 19.0015 19.2214 19.2212C19.0017 19.4408 19.0017 19.797 19.2214 20.0167L20.0292 20.8245C20.2489 21.0442 20.605 21.0442 20.8247 20.8245C21.0444 20.6048 21.0444 20.2487 20.8247 20.029L20.0169 19.2212Z" fill="white"/>
<path d="M6.76367 15.0001C6.76367 14.6894 7.01551 14.4376 7.32617 14.4376H8.46861C8.77927 14.4376 9.03111 14.6894 9.03111 15.0001C9.03111 15.3108 8.77927 15.5626 8.46861 15.5626H7.32617C7.01551 15.5626 6.76367 15.3108 6.76367 15.0001Z" fill="white"/>
<path d="M9.9717 9.17572C9.75203 8.95605 9.39588 8.95605 9.17621 9.17572C8.95654 9.39539 8.95654 9.75154 9.17621 9.97121L9.98404 10.779C10.2037 10.9987 10.5599 10.9987 10.7795 10.779C10.9992 10.5594 10.9992 10.2032 10.7795 9.98355L9.9717 9.17572Z" fill="white"/>
<path d="M11.8185 11.818C13.5759 10.0607 16.4251 10.0607 18.1825 11.818C19.9398 13.5754 19.9398 16.4246 18.1825 18.182C16.4251 19.9393 13.5759 19.9393 11.8185 18.182C10.0611 16.4246 10.0611 13.5754 11.8185 11.818Z" fill="white"/>
</g>
<defs>
<clipPath id="clip0_4889_4108">
<rect width="18" height="18" fill="white" transform="translate(6 6)"/>
</clipPath>
</defs>
</svg>
