<svg width="21" height="20" viewBox="0 0 21 20" fill="none" xmlns="http://www.w3.org/2000/svg">
<path d="M16.141 10V12.2917C16.141 13.2122 15.3948 13.9584 14.4743 13.9584H5.93262C4.89708 13.9584 4.05762 14.7978 4.05762 15.8334C4.05762 16.8689 4.89708 17.7084 5.93262 17.7084H8.43262M7.39095 5.83335H12.8076M7.39095 9.16669H10.3076M5.72428 2.29169H14.4743C15.3948 2.29169 16.141 3.03788 16.141 3.95835V16.0417C16.141 16.9622 15.3948 17.7084 14.4743 17.7084H5.72428C4.80381 17.7084 4.05762 16.9622 4.05762 16.0417V3.95835C4.05762 3.03788 4.80381 2.29169 5.72428 2.29169Z" stroke="#2B2B2B" stroke-width="1.5" stroke-linecap="round" stroke-linejoin="round"/>
</svg>
