<svg width="30" height="30" viewBox="0 0 30 30" fill="none" xmlns="http://www.w3.org/2000/svg">
<rect x="1" y="1" width="28" height="28" rx="14" fill="white"/>
<rect x="1" y="1" width="28" height="28" rx="14" stroke="#386EE2" stroke-width="2"/>
<g clip-path="url(#clip0_4889_4095)">
<path d="M15.0006 8.46813V7.32568M10.3818 19.619L9.57401 20.4268M15.0006 22.6745V21.5321M20.427 9.57351L19.6191 10.3813M21.5322 15.0001H22.6747M19.6191 19.6189L20.427 20.4267M7.32617 15.0001H8.46861M9.57395 9.57347L10.3818 10.3813M17.7847 12.2159C19.3224 13.7535 19.3224 16.2466 17.7847 17.7843C16.247 19.322 13.7539 19.322 12.2163 17.7843C10.6786 16.2466 10.6786 13.7535 12.2163 12.2159C13.7539 10.6782 16.247 10.6782 17.7847 12.2159Z" stroke="#386EE2" stroke-width="1.5" stroke-linecap="round" stroke-linejoin="round"/>
</g>
<defs>
<clipPath id="clip0_4889_4095">
<rect width="18" height="18" fill="white" transform="translate(6 6)"/>
</clipPath>
</defs>
</svg>
