<svg width="26" height="33" viewBox="0 0 26 33" fill="none" xmlns="http://www.w3.org/2000/svg">
<path fill-rule="evenodd" clip-rule="evenodd" d="M3.2305 22.501C5.38308 25.7328 8.63958 29.2325 13 33C17.3604 29.2325 20.6175 25.7328 22.7711 22.501C24.9237 19.2703 26 16.28 26 13.53C26 9.405 24.693 6.11875 22.0789 3.67125C19.4659 1.22375 16.4396 0 13 0C9.56042 0 6.53413 1.22375 3.92113 3.67125C1.30704 6.11875 0 9.405 0 13.53C0 16.28 1.07683 19.2703 3.2305 22.501Z" fill="#386EE2"/>
<g clip-path="url(#clip0_4173_19466)">
<path d="M21.4032 19.4115V16.4014H21.426L21.6175 16.044V15.6911H21.4032V14.1026H21.426L21.6175 13.7479V13.3941H21.3476V11.3333H21.344L21.0412 8.75635H20.9929V8.89313L20.6847 11.3333V13.3941H20.4157V13.7479L20.6081 14.1026H20.6291V15.6911H20.4157V16.0458L20.609 16.4014H20.63V19.0422L19.74 18.4148V15.9801H19.7573L19.9105 15.6993V15.4221H19.74V13.8564H19.7573L19.9105 13.5765V13.2993H19.74V12.0418H19.7573L19.9105 11.7637V11.4846H19.6953V9.8515H19.6935L19.4573 7.8299H19.4181V7.92108L19.1774 9.8515H19.1737V11.4846H18.9594V11.7646L19.1154 12.0427H19.1318V13.3002H18.9604V13.5783L19.1163 13.8582H19.1327V15.4239H18.9613V15.702L19.1172 15.982H19.1336V16.3804L18.923 16.3431L18.8245 16.095H18.6758V15.6911H18.7032L18.8491 15.4275V15.164H18.6758V13.9403H18.6932L18.8354 13.6768V13.4151H18.6758V12.2342H18.6932L18.8354 11.9743V11.7108H18.6357V10.1752H18.6339L18.4059 8.26394H18.3722V8.36334L18.1442 10.1743H18.1424V11.7099H17.9409V11.9734L18.085 12.2333H18.1014V13.4141H17.9409V13.6759L18.0859 13.9394H18.1023V15.1631H17.9272V15.4266L18.0758 15.6902H18.1023V16.0896L17.0956 16.0777V15.33H16.7983C16.7983 15.33 16.6935 14.9616 16.3068 14.7154C15.9175 14.4692 15.6393 14.4692 15.6393 14.4692V14.1947H15.7105C15.6457 13.9813 15.4634 13.8172 15.2363 13.7798V13.7616H15.2299C15.2327 13.7433 15.2327 13.7114 15.2108 13.6941C15.1825 13.6695 15.1178 13.6695 15.0877 13.6941C15.0685 13.7123 15.0694 13.7442 15.0694 13.7616H15.0512V13.7798C14.9764 13.7889 14.9071 13.8135 14.8424 13.8509V13.3439H14.639C14.3983 12.7239 13.7746 12.2524 13.0059 12.1403L12.9822 12.0883C12.9886 12.0345 12.9904 11.9369 12.9193 11.8831C12.8582 11.8366 12.8253 11.8102 12.8007 11.7837V10.8199L12.7123 10.5336L12.6256 10.8199V11.7691C12.5974 11.8001 12.5655 11.8284 12.4925 11.8831C12.4241 11.9369 12.4241 12.0345 12.4314 12.0883L12.3694 12.1366C11.5843 12.2342 10.9405 12.712 10.6952 13.3439H10.4919V13.7853C10.48 13.7835 10.47 13.7816 10.459 13.7798V13.7616H10.4518C10.4536 13.7433 10.4536 13.7114 10.4353 13.6941C10.4052 13.6695 10.3414 13.6695 10.315 13.6941C10.2922 13.7123 10.2922 13.7442 10.294 13.7616H10.2767V13.7798C10.0487 13.8135 9.85995 13.9777 9.7943 14.1947H9.8253L9.82074 14.3643C9.82074 14.3643 9.43411 14.4126 9.14049 14.5923C8.67544 14.8786 8.66632 15.3081 8.66632 15.3081L7.84565 15.319V15.164H7.66692V13.9403H7.68516L7.82832 13.6768V13.4151H7.66692V12.2342H7.68516L7.82832 11.9743V11.7108H7.6268V10.1752H7.62498L7.39883 8.36425V8.26485H7.36327L7.13531 10.1761H7.13348V11.7117H6.93561V11.9752L7.07786 12.2342H7.09518V13.4151H6.93561V13.6768L7.07786 13.9403H7.09518V15.164H6.92102V15.4275L7.06692 15.6911H7.09518V16.706H6.56083V15.9801H6.65567L6.80886 15.7002V15.4221H6.56083V13.8564H6.57998L6.73044 13.5765V13.2993H6.56083V12.0418H6.57998L6.73044 11.7637V11.4846H6.51706V9.8515H6.51342L6.27268 7.92108V7.8299H6.23438L5.9973 9.8515H5.99456V11.4846H5.77936V11.7646L5.93438 12.0427H5.94988V13.3002H5.77936V13.5783L5.93438 13.8582H5.94988V15.4239H5.85779V15.702L5.94897 15.8734V18.5981H5.68271L5.17389 19.1078V16.4014H5.19851L5.39182 16.0458V15.6911H5.1748V14.1026H5.19851L5.39182 13.7479V13.3941H5.12009V11.3333H5.11826L4.81279 8.89313V8.75635H4.76446L4.46172 11.3333H4.45807V13.3941H4.18908V13.7479L4.38239 14.1026H4.40336V15.6911H4.18908V16.0458L4.38148 16.4014H4.40245V19.4115H3.86719V20.5103H21.8072V19.4115H21.4032Z" fill="white"/>
</g>
<defs>
<clipPath id="clip0_4173_19466">
<rect width="17.94" height="14.95" fill="white" transform="translate(4.0293 5.20001)"/>
</clipPath>
</defs>
</svg>
