<svg width="40" height="41" viewBox="0 0 40 41" fill="none" xmlns="http://www.w3.org/2000/svg">
<rect y="0.5" width="40" height="40" rx="20" fill="#386EE2" fill-opacity="0.05"/>
<rect x="0.5" y="1" width="39" height="39" rx="19.5" stroke="#386EE2" stroke-opacity="0.05"/>
<path d="M22.2923 18.8333C22.2923 20.099 21.2663 21.125 20.0007 21.125C18.735 21.125 17.709 20.099 17.709 18.8333C17.709 17.5677 18.735 16.5417 20.0007 16.5417C21.2663 16.5417 22.2923 17.5677 22.2923 18.8333Z" stroke="#386EE2" stroke-width="1.5" stroke-linejoin="round"/>
<path d="M26.0423 18.8333C26.0423 22.6289 22.6467 26.0694 20.9468 27.554C20.3988 28.0326 19.6025 28.0326 19.0545 27.554C17.3546 26.0694 13.959 22.6289 13.959 18.8333C13.959 15.4966 16.6639 12.7917 20.0007 12.7917C23.3374 12.7917 26.0423 15.4966 26.0423 18.8333Z" stroke="#386EE2" stroke-width="1.5" stroke-linejoin="round"/>
</svg>
