<svg width="21" height="20" viewBox="0 0 21 20" fill="none" xmlns="http://www.w3.org/2000/svg">
<path d="M13.7763 14.4211C14.33 14.2629 14.7628 13.8301 14.9209 13.2764L17.5878 3.94232C17.7674 3.31369 17.1862 2.73251 16.5576 2.91211L7.22354 5.57899C6.66986 5.73719 6.23706 6.16999 6.07887 6.72367L3.41199 16.0577C3.23238 16.6864 3.81357 17.2676 4.4422 17.0879L13.7763 14.4211Z" stroke="#2B2B2B" stroke-width="1.5" stroke-linejoin="round"/>
<path d="M12.1666 10C12.1666 10.9205 11.4204 11.6667 10.4999 11.6667C9.57943 11.6667 8.83324 10.9205 8.83324 10C8.83324 9.07956 9.57943 8.33336 10.4999 8.33336C11.4204 8.33336 12.1666 9.07956 12.1666 10Z" stroke="#2B2B2B" stroke-width="1.5" stroke-linejoin="round"/>
</svg>
