<svg width="18" height="18" viewBox="0 0 18 18" fill="none" xmlns="http://www.w3.org/2000/svg">
<path fill-rule="evenodd" clip-rule="evenodd" d="M8.99999 2.25C9.14917 2.25 9.29225 2.30926 9.39774 2.41475L12.7727 5.78975C12.9924 6.00942 12.9924 6.36558 12.7727 6.58525C12.5531 6.80492 12.1969 6.80492 11.9773 6.58525L9.56249 4.17049V11.25C9.56249 11.5607 9.31065 11.8125 8.99999 11.8125C8.68933 11.8125 8.43749 11.5607 8.43749 11.25V4.1705L6.02275 6.58525C5.80308 6.80492 5.44692 6.80492 5.22725 6.58525C5.00758 6.36558 5.00758 6.00942 5.22725 5.78975L8.60224 2.41475C8.70773 2.30926 8.85081 2.25 8.99999 2.25Z" fill="white"/>
<path fill-rule="evenodd" clip-rule="evenodd" d="M2.8125 9C3.12316 9 3.375 9.25184 3.375 9.5625V13.6875C3.375 14.2053 3.79473 14.625 4.3125 14.625H13.6875C14.2053 14.625 14.625 14.2053 14.625 13.6875V9.5625C14.625 9.25184 14.8768 9 15.1875 9C15.4982 9 15.75 9.25184 15.75 9.5625V13.6875C15.75 14.8266 14.8266 15.75 13.6875 15.75H4.3125C3.17341 15.75 2.25 14.8266 2.25 13.6875V9.5625C2.25 9.25184 2.50184 9 2.8125 9Z" fill="white"/>
</svg>
