<svg width="44" height="50" viewBox="0 0 44 50" fill="none" xmlns="http://www.w3.org/2000/svg">
<path d="M31.8707 7.77567L31.924 7.81117L31.9814 7.83959L40.8194 12.2144C41.9039 12.7512 42.5597 13.8871 42.4824 15.0948L41.852 24.9361L41.8479 25L41.852 25.0639L42.4824 34.9052C42.5597 36.1129 41.9039 37.2488 40.8194 37.7856L31.9814 42.1604L31.924 42.1888L31.8707 42.2243L23.663 47.6909C22.6558 48.3617 21.3442 48.3617 20.337 47.6909L12.1293 42.2243L12.076 42.1888L12.0186 42.1604L3.18061 37.7856C2.09607 37.2488 1.44026 36.1129 1.51761 34.9052L2.14795 25.0639L2.15205 25L2.14795 24.9361L1.51761 15.0948C1.44026 13.8871 2.09607 12.7512 3.18061 12.2144L12.0186 7.83959L12.076 7.81117L12.1293 7.77567L20.337 2.30911C21.3442 1.63829 22.6558 1.63829 23.663 2.30911L31.8707 7.77567Z" fill="#386EE2" stroke="#6499FF" stroke-width="2"/>
</svg>
