<svg width="18" height="18" viewBox="0 0 18 18" fill="none" xmlns="http://www.w3.org/2000/svg">
<path d="M8.625 12.375H15.375M8.625 5.625H15.375M5.625 5.625C5.625 6.45343 4.95343 7.125 4.125 7.125C3.29657 7.125 2.625 6.45343 2.625 5.625C2.625 4.79657 3.29657 4.125 4.125 4.125C4.95343 4.125 5.625 4.79657 5.625 5.625ZM5.625 12.375C5.625 13.2034 4.95343 13.875 4.125 13.875C3.29657 13.875 2.625 13.2034 2.625 12.375C2.625 11.5466 3.29657 10.875 4.125 10.875C4.95343 10.875 5.625 11.5466 5.625 12.375Z" stroke="#2B2B2B" stroke-linecap="round" stroke-linejoin="round"/>
</svg>
