<svg width="24" height="24" viewBox="0 0 24 24" fill="none" xmlns="http://www.w3.org/2000/svg">
<path d="M15.93 17.3053C16.5944 17.1154 17.1137 16.5961 17.3036 15.9316L20.5038 4.73075C20.7194 3.9764 20.0219 3.27898 19.2676 3.4945L8.06669 6.69476C7.40227 6.88459 6.88291 7.40395 6.69308 8.06837L3.49283 19.2693C3.2773 20.0236 3.97472 20.721 4.72907 20.5055L15.93 17.3053Z" stroke="#2B2B2B" stroke-width="1.5" stroke-linejoin="round"/>
<path d="M13.9983 12C13.9983 13.1046 13.1029 14 11.9983 14C10.8938 14 9.99833 13.1046 9.99833 12C9.99833 10.8954 10.8938 10 11.9983 10C13.1029 10 13.9983 10.8954 13.9983 12Z" stroke="#2B2B2B" stroke-width="1.5" stroke-linejoin="round"/>
</svg>
