<svg width="21" height="20" viewBox="0 0 21 20" fill="none" xmlns="http://www.w3.org/2000/svg">
<path fill-rule="evenodd" clip-rule="evenodd" d="M2.36719 3.95831C2.36719 3.61314 2.64701 3.33331 2.99219 3.33331H11.7005C12.0457 3.33331 12.3255 3.61314 12.3255 3.95831C12.3255 4.30349 12.0457 4.58331 11.7005 4.58331H2.99219C2.64701 4.58331 2.36719 4.30349 2.36719 3.95831ZM14.8672 3.95831C14.8672 3.61314 15.147 3.33331 15.4922 3.33331H18.4089C18.754 3.33331 19.0339 3.61314 19.0339 3.95831C19.0339 4.30349 18.754 4.58331 18.4089 4.58331H15.4922C15.147 4.58331 14.8672 4.30349 14.8672 3.95831ZM2.36719 9.99998C2.36719 9.6548 2.64701 9.37498 2.99219 9.37498H7.57552C7.9207 9.37498 8.20052 9.6548 8.20052 9.99998C8.20052 10.3452 7.9207 10.625 7.57552 10.625H2.99219C2.64701 10.625 2.36719 10.3452 2.36719 9.99998ZM10.7005 9.99998C10.7005 9.6548 10.9803 9.37498 11.3255 9.37498H18.4089C18.754 9.37498 19.0339 9.6548 19.0339 9.99998C19.0339 10.3452 18.754 10.625 18.4089 10.625H11.3255C10.9803 10.625 10.7005 10.3452 10.7005 9.99998ZM2.36719 16.0416C2.36719 15.6965 2.64701 15.4166 2.99219 15.4166H9.24219C9.58737 15.4166 9.86719 15.6965 9.86719 16.0416C9.86719 16.3868 9.58737 16.6666 9.24219 16.6666H2.99219C2.64701 16.6666 2.36719 16.3868 2.36719 16.0416ZM12.3672 16.0416C12.3672 15.6965 12.647 15.4166 12.9922 15.4166H18.4089C18.754 15.4166 19.0339 15.6965 19.0339 16.0416C19.0339 16.3868 18.754 16.6666 18.4089 16.6666H12.9922C12.647 16.6666 12.3672 16.3868 12.3672 16.0416Z" fill="#386EE2"/>
</svg>
