<svg width="30" height="30" viewBox="0 0 30 30" fill="none" xmlns="http://www.w3.org/2000/svg">
<rect x="1" y="1" width="28" height="28" rx="14" fill="#6499FF"/>
<rect x="1" y="1" width="28" height="28" rx="14" stroke="#386EE2" stroke-width="2"/>
<path d="M14.6023 7.66841C14.8219 7.44874 15.1781 7.44874 15.3977 7.66841L17.2727 9.54341C17.4924 9.76308 17.4924 10.1192 17.2727 10.3389C17.0531 10.5586 16.6969 10.5586 16.4773 10.3389L15.5625 9.42416V12.1874C15.5625 12.4981 15.3107 12.7499 15 12.7499C14.6893 12.7499 14.4375 12.4981 14.4375 12.1874V9.42416L13.5227 10.3389C13.3031 10.5586 12.9469 10.5586 12.7273 10.3389C12.5076 10.1192 12.5076 9.76308 12.7273 9.54341L14.6023 7.66841Z" fill="white"/>
<path d="M7.50293 21.1874C7.50293 20.8767 7.75477 20.6249 8.06543 20.6249H21.9404C22.2511 20.6249 22.5029 20.8767 22.5029 21.1874C22.5029 21.4981 22.2511 21.7499 21.9404 21.7499H8.06543C7.75477 21.7499 7.50293 21.4981 7.50293 21.1874Z" fill="white"/>
<path d="M8.0625 17.6249C7.75184 17.6249 7.5 17.8767 7.5 18.1874C7.5 18.4981 7.75184 18.7499 8.0625 18.7499H9.1875C9.49816 18.7499 9.75 18.4981 9.75 18.1874C9.75 17.8767 9.49816 17.6249 9.1875 17.6249H8.0625Z" fill="white"/>
<path d="M20.8125 17.6249C20.5018 17.6249 20.25 17.8767 20.25 18.1874C20.25 18.4981 20.5018 18.7499 20.8125 18.7499H21.9375C22.2482 18.7499 22.5 18.4981 22.5 18.1874C22.5 17.8767 22.2482 17.6249 21.9375 17.6249H20.8125Z" fill="white"/>
<path d="M18.1875 18.7499C18.4982 18.7499 18.75 18.4981 18.75 18.1874V17.9999C18.75 15.9288 17.0711 14.2499 15 14.2499C12.9289 14.2499 11.25 15.9288 11.25 17.9999V18.1874C11.25 18.4981 11.5018 18.7499 11.8125 18.7499C13.2694 18.7499 15.1516 18.7499 18.1875 18.7499Z" fill="white"/>
<path fill-rule="evenodd" clip-rule="evenodd" d="M19.0222 14.6253C18.8225 14.3873 18.8536 14.0325 19.0916 13.8328L19.9534 13.1097C20.1913 12.91 20.5461 12.941 20.7458 13.179C20.9455 13.417 20.9145 13.7718 20.6765 13.9715L19.8147 14.6946C19.5767 14.8943 19.2219 14.8633 19.0222 14.6253Z" fill="white"/>
<path fill-rule="evenodd" clip-rule="evenodd" d="M9.25465 13.179C9.45434 12.941 9.80914 12.91 10.0471 13.1097L10.9089 13.8328C11.1469 14.0325 11.1779 14.3873 10.9782 14.6253C10.7786 14.8633 10.4238 14.8943 10.1858 14.6946L9.32398 13.9715C9.086 13.7718 9.05496 13.417 9.25465 13.179Z" fill="white"/>
</svg>
