<svg width="21" height="20" viewBox="0 0 21 20" fill="none" xmlns="http://www.w3.org/2000/svg">
<path fill-rule="evenodd" clip-rule="evenodd" d="M10.8997 18.3334C15.5021 18.3334 19.2331 14.6024 19.2331 10C19.2331 5.39765 15.5021 1.66669 10.8997 1.66669C6.29737 1.66669 2.56641 5.39765 2.56641 10C2.56641 14.6024 6.29737 18.3334 10.8997 18.3334ZM11.5247 6.45835C11.5247 6.11318 11.2449 5.83335 10.8997 5.83335C10.5546 5.83335 10.2747 6.11318 10.2747 6.45835V10C10.2747 10.1658 10.3406 10.3248 10.4578 10.442L12.7495 12.7336C12.9935 12.9777 13.3893 12.9777 13.6333 12.7336C13.8774 12.4896 13.8774 12.0938 13.6333 11.8497L11.5247 9.74114V6.45835Z" fill="#386EE2"/>
</svg>
