<svg width="18" height="18" viewBox="0 0 18 18" fill="none" xmlns="http://www.w3.org/2000/svg">
<path d="M16.5609 13.133C16.5609 13.133 17.3522 11.948 16.4268 9.81927C15.1152 6.80156 14.4082 4.92578 11.2229 2.62273C8.25209 0.475844 4.79082 1.22309 2.72919 3.53284C0.667563 5.84259 0.956881 7.92242 2.16493 10.1871C3.26472 12.2497 5.66835 12.4921 8.35077 11.3904C10.8991 10.3433 13.798 10.2858 16.5609 13.133Z" stroke="#2B2B2B" stroke-width="0.24" stroke-miterlimit="10"/>
<path d="M16.5604 13.133L16.0977 13.9387" stroke="#2B2B2B" stroke-width="0.24" stroke-miterlimit="10"/>
<path d="M6.80652 1.62262C6.80652 2.29761 6.25934 2.84479 5.58435 2.84479C4.90937 2.84479 4.36219 2.29761 4.36219 1.62262C4.36219 0.947639 4.90937 0.400457 5.58435 0.400457C6.25934 0.400457 6.80652 0.947639 6.80652 1.62262Z" fill="#2B2B2B" stroke="#2B2B2B" stroke-width="0.24"/>
<path d="M5.68582 0.910786C5.68582 1.0789 5.54954 1.21518 5.38143 1.21518C5.21331 1.21518 5.07703 1.0789 5.07703 0.910786C5.07703 0.742672 5.21331 0.606389 5.38143 0.606389C5.54954 0.606389 5.68582 0.742672 5.68582 0.910786Z" fill="#2B2B2B" stroke="#2B2B2B" stroke-width="0.24"/>
<path d="M4.12683 3.34412C4.12683 4.0191 3.57965 4.56628 2.90467 4.56628C2.22968 4.56628 1.6825 4.0191 1.6825 3.34412C1.6825 2.66914 2.22968 2.12195 2.90467 2.12195C3.57965 2.12195 4.12683 2.66914 4.12683 3.34412Z" fill="#2B2B2B" stroke="#2B2B2B" stroke-width="0.24"/>
<path d="M3.00614 2.63228C3.00614 2.8004 2.86985 2.93668 2.70174 2.93668C2.53363 2.93668 2.39734 2.8004 2.39734 2.63228C2.39734 2.46417 2.53363 2.32789 2.70174 2.32789C2.86985 2.32789 3.00614 2.46417 3.00614 2.63228Z" fill="#2B2B2B" stroke="#2B2B2B" stroke-width="0.24"/>
<path d="M2.56433 6.06006C2.56433 6.73504 2.01715 7.28223 1.34217 7.28223C0.667182 7.28223 0.12 6.73504 0.12 6.06006C0.12 5.38508 0.667183 4.8379 1.34217 4.8379C2.01715 4.8379 2.56433 5.38508 2.56433 6.06006Z" fill="#2B2B2B" stroke="#2B2B2B" stroke-width="0.24"/>
<path d="M1.44364 5.34816C1.44364 5.51628 1.30735 5.65256 1.13924 5.65256C0.971127 5.65256 0.834844 5.51628 0.834844 5.34816C0.834844 5.18005 0.971127 5.04377 1.13924 5.04377C1.30735 5.04377 1.44364 5.18005 1.44364 5.34816Z" fill="#2B2B2B" stroke="#2B2B2B" stroke-width="0.24"/>
<path d="M2.9198 9.18415C2.9198 9.85913 2.37262 10.4063 1.69763 10.4063C1.02265 10.4063 0.475469 9.85913 0.475469 9.18415C0.475469 8.50916 1.02265 7.96198 1.69763 7.96198C2.37262 7.96198 2.9198 8.50916 2.9198 9.18415Z" fill="#2B2B2B" stroke="#2B2B2B" stroke-width="0.24"/>
<path d="M1.79911 8.47231C1.79911 8.64042 1.66282 8.77671 1.49471 8.77671C1.3266 8.77671 1.19031 8.64042 1.19031 8.47231C1.19031 8.3042 1.3266 8.16791 1.49471 8.16791C1.66282 8.16791 1.79911 8.3042 1.79911 8.47231Z" fill="#2B2B2B" stroke="#2B2B2B" stroke-width="0.24"/>
<path d="M4.90808 11.6691C4.90808 12.3441 4.3609 12.8913 3.68592 12.8913C3.01093 12.8913 2.46375 12.3441 2.46375 11.6691C2.46375 10.9941 3.01093 10.447 3.68592 10.447C4.3609 10.447 4.90808 10.9941 4.90808 11.6691Z" fill="#2B2B2B" stroke="#2B2B2B" stroke-width="0.24"/>
<path d="M3.78739 10.9573C3.78739 11.1254 3.6511 11.2617 3.48299 11.2617C3.31488 11.2617 3.17859 11.1254 3.17859 10.9573C3.17859 10.7892 3.31488 10.6529 3.48299 10.6529C3.6511 10.6529 3.78739 10.7892 3.78739 10.9573Z" fill="#2B2B2B" stroke="#2B2B2B" stroke-width="0.24"/>
<path d="M8.04871 11.8818C8.04871 12.5568 7.50152 13.1039 6.82654 13.1039C6.15156 13.1039 5.60437 12.5568 5.60437 11.8818C5.60437 11.2068 6.15156 10.6596 6.82654 10.6596C7.50152 10.6596 8.04871 11.2068 8.04871 11.8818Z" fill="#2B2B2B" stroke="#2B2B2B" stroke-width="0.24"/>
<path d="M6.92801 11.1699C6.92801 11.3381 6.79173 11.4743 6.62362 11.4743C6.4555 11.4743 6.31922 11.3381 6.31922 11.1699C6.31922 11.0018 6.4555 10.8655 6.62362 10.8655C6.79173 10.8655 6.92801 11.0018 6.92801 11.1699Z" fill="#2B2B2B" stroke="#2B2B2B" stroke-width="0.24"/>
<path d="M11.0331 10.9056C11.0331 11.5806 10.4859 12.1277 9.81092 12.1277C9.13593 12.1277 8.58875 11.5806 8.58875 10.9056C8.58875 10.2306 9.13593 9.68342 9.81092 9.68342C10.4859 9.68342 11.0331 10.2306 11.0331 10.9056Z" fill="#2B2B2B" stroke="#2B2B2B" stroke-width="0.24"/>
<path d="M9.91239 10.1939C9.91239 10.362 9.7761 10.4983 9.60799 10.4983C9.43988 10.4983 9.30359 10.362 9.30359 10.1939C9.30359 10.0258 9.43988 9.88947 9.60799 9.88947C9.7761 9.88947 9.91239 10.0258 9.91239 10.1939Z" fill="#2B2B2B" stroke="#2B2B2B" stroke-width="0.24"/>
<path d="M14.2089 10.9592C14.2089 11.6342 13.6617 12.1814 12.9867 12.1814C12.3117 12.1814 11.7645 11.6342 11.7645 10.9592C11.7645 10.2842 12.3117 9.73707 12.9867 9.73707C13.6617 9.73707 14.2089 10.2842 14.2089 10.9592Z" fill="#2B2B2B" stroke="#2B2B2B" stroke-width="0.24"/>
<path d="M13.0882 10.2475C13.0882 10.4156 12.9519 10.5519 12.7838 10.5519C12.6157 10.5519 12.4794 10.4156 12.4794 10.2475C12.4794 10.0793 12.6157 9.94306 12.7838 9.94306C12.9519 9.94306 13.0882 10.0793 13.0882 10.2475Z" fill="#2B2B2B" stroke="#2B2B2B" stroke-width="0.24"/>
<path d="M9.96668 1.48078C9.96668 2.15576 9.41949 2.70294 8.74451 2.70294C8.06953 2.70294 7.52234 2.15576 7.52234 1.48078C7.52234 0.805793 8.06953 0.258611 8.74451 0.258611C9.41949 0.258611 9.96668 0.805793 9.96668 1.48078Z" fill="#2B2B2B" stroke="#2B2B2B" stroke-width="0.24"/>
<path d="M8.84598 0.769001C8.84598 0.937114 8.7097 1.0734 8.54158 1.0734C8.37347 1.0734 8.23719 0.937114 8.23719 0.769001C8.23719 0.600887 8.37347 0.464604 8.54158 0.464604C8.7097 0.464604 8.84598 0.600887 8.84598 0.769001Z" fill="#2B2B2B" stroke="#2B2B2B" stroke-width="0.24"/>
<path d="M12.7714 2.88239C12.7714 3.55737 12.2242 4.10455 11.5492 4.10455C10.8742 4.10455 10.327 3.55737 10.327 2.88239C10.327 2.2074 10.8742 1.66022 11.5492 1.66022C12.2242 1.66022 12.7714 2.2074 12.7714 2.88239Z" fill="#2B2B2B" stroke="#2B2B2B" stroke-width="0.24"/>
<path d="M11.6507 2.17153C11.6507 2.33964 11.5144 2.47592 11.3463 2.47592C11.1782 2.47592 11.0419 2.33964 11.0419 2.17153C11.0419 2.00341 11.1782 1.86713 11.3463 1.86713C11.5144 1.86713 11.6507 2.00341 11.6507 2.17153Z" fill="#2B2B2B" stroke="#2B2B2B" stroke-width="0.24"/>
<path d="M15.0565 5.00531C15.0565 5.6803 14.5093 6.22748 13.8344 6.22748C13.1594 6.22748 12.6122 5.6803 12.6122 5.00531C12.6122 4.33033 13.1594 3.78315 13.8344 3.78315C14.5093 3.78315 15.0565 4.33033 15.0565 5.00531Z" fill="#2B2B2B" stroke="#2B2B2B" stroke-width="0.24"/>
<path d="M13.9358 4.29366C13.9358 4.46177 13.7995 4.59806 13.6314 4.59806C13.4633 4.59806 13.327 4.46177 13.327 4.29366C13.327 4.12555 13.4633 3.98926 13.6314 3.98926C13.7995 3.98926 13.9358 4.12555 13.9358 4.29366Z" fill="#2B2B2B" stroke="#2B2B2B" stroke-width="0.24"/>
<path d="M16.6581 7.58618C16.6581 8.26117 16.1109 8.80835 15.4359 8.80835C14.7609 8.80835 14.2137 8.26117 14.2137 7.58618C14.2137 6.9112 14.7609 6.36402 15.4359 6.36402C16.1109 6.36402 16.6581 6.9112 16.6581 7.58618Z" fill="#2B2B2B" stroke="#2B2B2B" stroke-width="0.24"/>
<path d="M15.5374 6.87532C15.5374 7.04344 15.4011 7.17972 15.233 7.17972C15.0649 7.17972 14.9286 7.04344 14.9286 6.87532C14.9286 6.70721 15.0649 6.57093 15.233 6.57093C15.4011 6.57093 15.5374 6.70721 15.5374 6.87532Z" fill="#2B2B2B" stroke="#2B2B2B" stroke-width="0.24"/>
<path d="M17.8807 10.3184C17.8807 10.9933 17.3336 11.5405 16.6586 11.5405C15.9836 11.5405 15.4364 10.9933 15.4364 10.3184C15.4364 9.64338 15.9836 9.0962 16.6586 9.0962C17.3336 9.0962 17.8807 9.64338 17.8807 10.3184Z" fill="#2B2B2B" stroke="#2B2B2B" stroke-width="0.24"/>
<path d="M16.76 9.60653C16.76 9.77464 16.6238 9.91092 16.4556 9.91092C16.2875 9.91092 16.1512 9.77464 16.1512 9.60653C16.1512 9.43841 16.2875 9.30213 16.4556 9.30213C16.6238 9.30213 16.76 9.43841 16.76 9.60653Z" fill="#2B2B2B" stroke="#2B2B2B" stroke-width="0.24"/>
<path d="M16.5396 14.3918C16.5396 14.7795 16.2253 15.0938 15.8376 15.0938C15.4499 15.0938 15.1356 14.7795 15.1356 14.3918C15.1356 14.0041 15.4499 13.6898 15.8376 13.6898C16.2253 13.6898 16.5396 14.0041 16.5396 14.3918Z" fill="#2B2B2B" stroke="#2B2B2B" stroke-width="0.24"/>
<path d="M15.1959 17.7403L15.1963 17.7405C15.1983 17.7418 15.201 17.7418 15.203 17.7387L15.2042 17.7367L15.2042 17.7367L15.2046 17.7361C15.2048 17.7357 15.2049 17.7352 15.2048 17.7343C15.2046 17.7329 15.2039 17.7301 15.201 17.727L15.2897 17.6462M15.1959 17.7403L15.7469 15.5729C15.592 15.8168 15.357 16.2278 15.2062 16.6313C15.1309 16.8327 15.0741 17.0386 15.0615 17.2245C15.049 17.4084 15.0787 17.593 15.2011 17.7271L15.2897 17.6462M15.1959 17.7403L14.1709 17.0898L13.1461 16.4395C13.1461 16.4395 13.1461 16.4395 13.1461 16.4395C13.143 16.4375 13.143 16.4349 13.1443 16.4328L13.145 16.4318L13.145 16.4318L13.1458 16.4305C13.1465 16.4294 13.1471 16.4291 13.148 16.4288C13.1492 16.4284 13.152 16.4279 13.1561 16.4292L13.1562 16.4292C13.3296 16.4829 13.5094 16.4314 13.6707 16.3419C13.8336 16.2516 13.9959 16.1127 14.1462 15.9591C14.4475 15.6512 14.7197 15.2638 14.8747 15.0194L14.8747 15.0194C14.9437 14.9106 15.0192 14.854 15.0898 14.8249C15.1615 14.7954 15.2366 14.7909 15.3085 14.8003C15.3807 14.8097 15.4462 14.8326 15.4945 14.854C15.5184 14.8646 15.5373 14.8745 15.5499 14.8814C15.5562 14.8849 15.5608 14.8877 15.5637 14.8894L15.5665 14.8911M15.1959 17.7403L15.5665 14.8911M15.2897 17.6462C15.329 17.6893 15.3366 17.7516 15.306 17.8004M15.2897 17.6462C14.9276 17.2496 15.5426 16.1182 15.8482 15.6372L15.306 17.8004M15.306 17.8004L15.3041 17.8033C15.2667 17.8617 15.1901 17.879 15.1316 17.8416L14.1066 17.1911L15.306 17.8004ZM15.5681 14.8921L15.5682 14.8922L15.571 14.894C15.5737 14.8959 15.5782 14.8989 15.584 14.9031C15.5957 14.9116 15.6127 14.9245 15.6324 14.9416C15.6723 14.9763 15.721 15.0259 15.7603 15.0873C15.7994 15.1484 15.8273 15.2184 15.8311 15.2958C15.8349 15.372 15.8159 15.4643 15.7469 15.5729L15.5681 14.8921ZM15.5681 14.8921L15.568 14.8921L15.5679 14.892L15.5678 14.8919L15.5669 14.8914C15.5669 14.8914 15.5668 14.8913 15.5665 14.8911L15.5665 14.8911M15.5681 14.8921L15.5665 14.8911" fill="#2B2B2B" stroke="#2B2B2B" stroke-width="0.24"/>
</svg>
