<svg width="24" height="24" viewBox="0 0 24 24" fill="none" xmlns="http://www.w3.org/2000/svg">
<path d="M5.04461 8.67345C5.59523 5.2596 8.54203 2.75 12 2.75C15.458 2.75 18.4048 5.2596 18.9554 8.67345L20.1261 15.9315C20.3222 17.1475 19.3832 18.25 18.1516 18.25H5.84843C4.61679 18.25 3.67783 17.1475 3.87395 15.9315L5.04461 8.67345Z" fill="#386EE2"/>
<path d="M16 18.25C15.3267 20.0159 13.7891 21.25 12 21.25C10.2109 21.25 8.67327 20.0159 8 18.25M5.84843 18.25H18.1516C19.3832 18.25 20.3222 17.1475 20.1261 15.9315L18.9554 8.67345C18.4048 5.2596 15.458 2.75 12 2.75C8.54203 2.75 5.59523 5.2596 5.04461 8.67345L3.87395 15.9315C3.67783 17.1475 4.61679 18.25 5.84843 18.25Z" stroke="#386EE2" stroke-width="1.5"/>
</svg>
