<svg width="30" height="30" viewBox="0 0 30 30" fill="none" xmlns="http://www.w3.org/2000/svg">
<rect x="1" y="1" width="28" height="28" rx="14" fill="#6499FF"/>
<rect x="1" y="1" width="28" height="28" rx="14" stroke="#386EE2" stroke-width="2"/>
<path d="M15 7.5C15.3107 7.5 15.5625 7.75184 15.5625 8.0625V11.017L16.4773 10.1023C16.6969 9.88258 17.0531 9.88258 17.2727 10.1023C17.4924 10.3219 17.4924 10.6781 17.2727 10.8977L15.3977 12.7727C15.1781 12.9924 14.8219 12.9924 14.6023 12.7727L12.7273 10.8977C12.5076 10.6781 12.5076 10.3219 12.7273 10.1023C12.9469 9.88258 13.3031 9.88258 13.5227 10.1023L14.4375 11.017V8.0625C14.4375 7.75184 14.6893 7.5 15 7.5Z" fill="white"/>
<path d="M7.50293 21.1875C7.50293 20.8768 7.75477 20.625 8.06543 20.625H21.9404C22.2511 20.625 22.5029 20.8768 22.5029 21.1875C22.5029 21.4982 22.2511 21.75 21.9404 21.75H8.06543C7.75477 21.75 7.50293 21.4982 7.50293 21.1875Z" fill="white"/>
<path d="M8.0625 17.625C7.75184 17.625 7.5 17.8768 7.5 18.1875C7.5 18.4982 7.75184 18.75 8.0625 18.75H9.1875C9.49816 18.75 9.75 18.4982 9.75 18.1875C9.75 17.8768 9.49816 17.625 9.1875 17.625H8.0625Z" fill="white"/>
<path d="M20.8125 17.625C20.5018 17.625 20.25 17.8768 20.25 18.1875C20.25 18.4982 20.5018 18.75 20.8125 18.75H21.9375C22.2482 18.75 22.5 18.4982 22.5 18.1875C22.5 17.8768 22.2482 17.625 21.9375 17.625H20.8125Z" fill="white"/>
<path d="M19.0237 14.6254C18.824 14.3874 18.855 14.0326 19.093 13.8329L19.9548 13.1098C20.1928 12.9101 20.5476 12.9411 20.7473 13.1791C20.947 13.4171 20.9159 13.7719 20.6779 13.9716L19.8161 14.6947C19.5782 14.8944 19.2234 14.8634 19.0237 14.6254Z" fill="white"/>
<path d="M10.0461 13.1098C9.80816 12.9101 9.45335 12.9411 9.25367 13.1791C9.05398 13.4171 9.08502 13.7719 9.323 13.9716L10.1848 14.6947C10.4228 14.8944 10.7776 14.8633 10.9773 14.6254C11.177 14.3874 11.1459 14.0326 10.9079 13.8329L10.0461 13.1098Z" fill="white"/>
<path d="M18.1875 18.75C18.4982 18.75 18.75 18.4982 18.75 18.1875V18C18.75 15.9289 17.0711 14.25 15 14.25C12.9289 14.25 11.25 15.9289 11.25 18V18.1875C11.25 18.4982 11.5018 18.75 11.8125 18.75C13.0688 18.75 16.9312 18.75 18.1875 18.75Z" fill="white"/>
</svg>
