<svg width="17" height="16" viewBox="0 0 17 16" fill="none" xmlns="http://www.w3.org/2000/svg">
<path d="M15.7832 12.4015C15.3934 11.1091 15.3934 5.69851 15.3934 4.28447C15.3934 2.87044 15.4172 2.89545 15.0523 2.16342C14.6863 1.43254 14.2726 0.725519 13.7361 0.384514C13.1996 0.0435093 12.4925 -0.0542461 11.6934 0.223105C10.8841 0.505002 9.58604 1.60986 8.86083 3.62633C8.20269 5.45412 8.69033 6.7704 9.6406 7.47742C10.5909 8.18443 11.7855 7.76954 12.6392 7.67293C13.4928 7.57517 14.0532 7.64906 14.0532 7.64906C14.0532 7.64906 13.9554 9.18471 14.1998 11.6468C14.3828 13.4905 14.2487 14.1088 14.7602 14.9375C15.2717 15.7661 15.6377 15.8877 15.8571 15.9366C16.0765 15.9855 16.588 14.8397 16.7585 14.401C16.929 13.9622 17.0018 13.7667 17.0018 13.7667C17.0018 13.7667 16.1731 13.6928 15.7832 12.4015ZM13.8338 5.35637C13.4678 5.819 12.6392 5.79513 11.4695 5.79513C10.3954 5.79513 10.1044 5.45412 10.1044 4.79598C10.1044 4.13784 10.4272 3.29215 10.9091 2.87044C11.6889 2.18843 12.3959 2.45555 12.9074 2.91932C13.4189 3.38195 14.2237 4.86305 13.8338 5.35637Z" fill="#2B2B2B"/>
<path d="M7.22464 12.4015C6.83476 11.1091 6.83476 5.69851 6.83476 4.28447C6.83476 2.87044 6.85863 2.89545 6.49375 2.16342C6.12774 1.43254 5.71399 0.725519 5.17747 0.384514C4.64096 0.0435093 3.93394 -0.0542461 3.13485 0.223105C2.32553 0.505002 1.02744 1.60986 0.302239 3.62633C-0.355901 5.45412 0.131736 6.7704 1.082 7.47742C2.03227 8.18443 3.22692 7.76955 4.08057 7.67293C4.93422 7.57517 5.49461 7.64906 5.49461 7.64906C5.49461 7.64906 5.39685 9.18472 5.64124 11.6468C5.82425 13.4905 5.69012 14.1088 6.20162 14.9375C6.71313 15.7661 7.07914 15.8877 7.29852 15.9366C7.5179 15.9855 8.02941 14.8397 8.19991 14.401C8.37042 13.9622 8.44316 13.7667 8.44316 13.7667C8.44316 13.7667 7.61452 13.6928 7.22464 12.4015ZM5.27409 5.35637C4.90808 5.819 4.07944 5.79513 2.90979 5.79513C1.83562 5.79513 1.54463 5.45412 1.54463 4.79598C1.54463 4.13784 1.86745 3.29215 2.3494 2.87044C3.12917 2.18843 3.83619 2.45555 4.34769 2.91932C4.86034 3.38195 5.66397 4.86305 5.27409 5.35637Z" fill="#2B2B2B"/>
</svg>
