<svg width="30" height="30" viewBox="0 0 30 30" fill="none" xmlns="http://www.w3.org/2000/svg">
<rect x="1" y="1" width="28" height="28" rx="14" fill="#6499FF"/>
<rect x="1" y="1" width="28" height="28" rx="14" stroke="#386EE2" stroke-width="2"/>
<path d="M15 7.5C10.8579 7.5 7.5 10.8579 7.5 15C7.5 19.1421 10.8579 22.5 15 22.5C19.1421 22.5 22.5 19.1421 22.5 15C22.5 14.9489 22.4995 14.8979 22.4985 14.8471C22.4943 14.639 22.3755 14.4501 22.1897 14.3563C22.0038 14.2624 21.7814 14.2789 21.6114 14.3991C20.9088 14.8958 20.0518 15.1875 19.125 15.1875C16.7433 15.1875 14.8125 13.2567 14.8125 10.875C14.8125 9.94818 15.1042 9.09118 15.6009 8.38864C15.7211 8.21864 15.7376 7.99616 15.6437 7.81033C15.5499 7.62449 15.361 7.5057 15.1529 7.50153C15.102 7.50051 15.0511 7.5 15 7.5Z" fill="white"/>
</svg>
