<svg width="70" height="69" viewBox="0 0 70 69" fill="none" xmlns="http://www.w3.org/2000/svg">
<path d="M42.1812 28.75C42.1812 32.7195 38.9632 35.9375 34.9937 35.9375C31.0241 35.9375 27.8062 32.7195 27.8062 28.75C27.8062 24.7805 31.0241 21.5625 34.9937 21.5625C38.9632 21.5625 42.1812 24.7805 42.1812 28.75Z" stroke="white" stroke-width="2" stroke-linejoin="round"/>
<path d="M55.125 28.75C55.125 41.3153 43.9533 52.7123 38.2571 57.7067C36.3697 59.3616 33.6303 59.3615 31.7429 57.7067C26.0467 52.7123 14.875 41.3152 14.875 28.75C14.875 17.6353 23.8853 8.625 35 8.625C46.1147 8.625 55.125 17.6353 55.125 28.75Z" stroke="white" stroke-width="2" stroke-linejoin="round"/>
</svg>
