<svg width="18" height="18" viewBox="0 0 18 18" fill="none" xmlns="http://www.w3.org/2000/svg">
<path d="M6.375 3.75003V13.125M11.625 4.87503V14.25M1.875 12.8747V5.65869C1.875 5.02399 2.27447 4.458 2.87249 4.24537L5.90865 3.16584C6.21152 3.05815 6.54097 3.05061 6.84845 3.14432L11.1515 4.45574C11.459 4.54945 11.7885 4.5419 12.0913 4.43421L14.1225 3.71203C15.099 3.36483 16.125 4.08895 16.125 5.12535V12.3414C16.125 12.9761 15.7255 13.5421 15.1275 13.7547L12.0913 14.8342C11.7885 14.9419 11.459 14.9494 11.1515 14.8557L6.84845 13.5443C6.54097 13.4506 6.21152 13.4582 5.90865 13.5658L3.87751 14.288C2.901 14.6352 1.875 13.9111 1.875 12.8747Z" stroke="#2B2B2B" stroke-linecap="square" stroke-linejoin="round"/>
</svg>
