<svg width="20" height="20" viewBox="0 0 20 20" fill="none" xmlns="http://www.w3.org/2000/svg">
<path d="M12.2913 8.33332C12.2913 9.59898 11.2653 10.625 9.99967 10.625C8.73402 10.625 7.70801 9.59898 7.70801 8.33332C7.70801 7.06767 8.73402 6.04166 9.99967 6.04166C11.2653 6.04166 12.2913 7.06767 12.2913 8.33332Z" stroke="#2B2B2B" stroke-width="1.5" stroke-linejoin="round"/>
<path d="M16.0413 8.33332C16.0413 12.1289 12.6458 15.5694 10.9458 17.054C10.3978 17.5326 9.60153 17.5326 9.05353 17.054C7.3536 15.5694 3.95801 12.1289 3.95801 8.33332C3.95801 4.9966 6.66295 2.29166 9.99967 2.29166C13.3364 2.29166 16.0413 4.9966 16.0413 8.33332Z" stroke="#2B2B2B" stroke-width="1.5" stroke-linejoin="round"/>
</svg>
