<svg width="21" height="20" viewBox="0 0 21 20" fill="none" xmlns="http://www.w3.org/2000/svg">
<path d="M3.4248 8.13866C3.4248 7.67436 3.4248 7.44221 3.48321 7.22743C3.53496 7.03715 3.62006 6.85755 3.73457 6.69701C3.86381 6.5158 4.04349 6.36879 4.40284 6.07478L8.61117 2.6316C9.21278 2.13937 9.51358 1.89326 9.84836 1.79906C10.1436 1.71599 10.456 1.71599 10.7512 1.79906C11.086 1.89326 11.3868 2.13937 11.9884 2.6316L16.1968 6.07478C16.5561 6.36879 16.7358 6.5158 16.865 6.69701C16.9795 6.85755 17.0647 7.03715 17.1164 7.22743C17.1748 7.44221 17.1748 7.67436 17.1748 8.13866V14.2083C17.1748 15.1417 17.1748 15.6085 16.9931 15.965C16.8334 16.2786 16.5784 16.5335 16.2648 16.6933C15.9083 16.875 15.4416 16.875 14.5081 16.875H6.09147C5.15805 16.875 4.69134 16.875 4.33482 16.6933C4.02122 16.5335 3.76625 16.2786 3.60646 15.965C3.4248 15.6085 3.4248 15.1417 3.4248 14.2083V8.13866Z" stroke="#2B2B2B" stroke-width="1.5" stroke-linejoin="round"/>
</svg>
