<svg width="21" height="20" viewBox="0 0 21 20" fill="none" xmlns="http://www.w3.org/2000/svg">
<path fill-rule="evenodd" clip-rule="evenodd" d="M16.3857 2.31132C17.4858 1.997 18.5029 3.01407 18.1886 4.11417L15.5217 13.4483C15.3042 14.2096 14.7091 14.8047 13.9478 15.0222L4.61369 17.6891C3.51359 18.0034 2.49651 16.9863 2.81083 15.8862L5.47771 6.55212C5.69522 5.79081 6.29032 5.19571 7.05163 4.9782L16.3857 2.31132ZM8.52054 10C8.52054 8.90694 9.40664 8.02083 10.4997 8.02083C11.5928 8.02083 12.4789 8.90694 12.4789 10C12.4789 11.0931 11.5928 11.9792 10.4997 11.9792C9.40664 11.9792 8.52054 11.0931 8.52054 10Z" fill="#386EE2"/>
</svg>
